<?xml version="1.0" encoding="UTF-8"?><svg id="a" xmlns="http://www.w3.org/2000/svg" viewBox="0 0 112 112"><circle cx="6" cy="106" r="5" style="fill:none; stroke:#fff; stroke-miterlimit:10; stroke-width:2px;"/><polygon points="6 6 106 6 6 106 6 6" style="stroke-width:0px;"/><polygon points="106 106 6 106 106 6 106 106" style="fill:#fff; stroke-width:0px;"/><path d="m9.54,102.46c.9.9,1.46,2.15,1.46,3.54" style="fill:none; stroke:#000; stroke-miterlimit:10; stroke-width:2px;"/><path d="m6,101c1.28,0,2.56.49,3.54,1.46" style="fill:none; stroke:#fff; stroke-miterlimit:10; stroke-width:2px;"/><circle cx="106" cy="6" r="5" style="fill:none; stroke:#000; stroke-miterlimit:10; stroke-width:2px;"/><path d="m106,11c-1.28,0-2.56-.49-3.54-1.46" style="fill:none; stroke:#000; stroke-miterlimit:10; stroke-width:2px;"/><path d="m102.46,9.54c-.9-.9-1.46-2.15-1.46-3.54" style="fill:none; stroke:#fff; stroke-miterlimit:10; stroke-width:2px;"/><circle cx="106" cy="6" r="2" style="stroke-width:0px;"/><circle cx="6" cy="106" r="2" style="fill:#fff; stroke-width:0px;"/><circle cx="6" cy="6" r="4" style="fill:#fff; stroke-width:0px;"/><circle cx="106" cy="106" r="4" style="stroke-width:0px;"/></svg>