<?xml version="1.0" encoding="utf-8"?>
<svg viewBox="28.5377 34.944 42.9233 30.099" xmlns="http://www.w3.org/2000/svg">
  <g transform="matrix(0.9999999999999999, 0, 0, 0.9999999999999999, -1.7763568394002505e-15, 0)">
    <path d="m69.168 52.043h-35.418c-1.25 0-2.293-1.043-2.293-2.293s1.043-2.293 2.293-2.293h35.418c1.25 0 2.293 1.043 2.293 2.293s-1.043 2.293-2.293 2.293z"/>
    <path d="m37.918 65.043c-0.75 0-1.5-0.375-1.918-1.043l-6.082-9.5c-1.875-2.918-1.832-6.625 0.082031-9.5l6-9.043c0.70703-1.043 2.125-1.332 3.168-0.625s1.332 2.125 0.625 3.168l-6.043 9.043c-0.91797 1.332-0.91797 3.082-0.042969 4.457l6.082 9.5c0.66797 1.082 0.375 2.5-0.70703 3.168-0.375 0.25-0.79297 0.375-1.25 0.375z"/>
  </g>
</svg>