<?xml version="1.0" encoding="utf-8"?>
<svg viewBox="37.2097 26.8773 25.6869 46.2477" xmlns="http://www.w3.org/2000/svg">
  <path d="m60.543 73.125c-0.5 0-1.043-0.16797-1.457-0.54297l-18.582-15.5c-0.41797-0.33203-0.83203-0.75-1.168-1.168-3.25-3.918-2.707-9.75 1.168-13l18.582-15.5c0.95703-0.83203 2.418-0.66797 3.25 0.29297 0.79297 0.95703 0.66797 2.418-0.29297 3.207l-18.582 15.5c-1.957 1.625-2.25 4.582-0.58203 6.543 0.16797 0.20703 0.375 0.41797 0.58203 0.58203l18.625 15.5c0.95703 0.79297 1.082 2.25 0.29297 3.207-0.45703 0.54297-1.125 0.83203-1.75 0.83203z" transform="matrix(0.9999999999999999, 0, 0, 0.9999999999999999, -1.7763568394002505e-15, 0)"/>
</svg>