<?xml version="1.0" encoding="utf-8"?>
<svg viewBox="28.539 34.944 42.9247 30.099" xmlns="http://www.w3.org/2000/svg">
  <g transform="matrix(0.9999999999999999, 0, 0, 0.9999999999999999, -1.7763568394002505e-15, 0)">
    <path d="m66.25 52.043h-35.418c-1.25 0-2.293-1.043-2.293-2.293s1.043-2.293 2.293-2.293h35.418c1.25 0 2.293 1.043 2.293 2.293s-1.043 2.293-2.293 2.293z"/>
    <path d="m62.082 65.043c-0.41797 0-0.83203-0.125-1.25-0.375-1.082-0.66797-1.375-2.082-0.70703-3.168l6.082-9.5c0.875-1.375 0.875-3.125 0-4.457l-6.043-9.043c-0.70703-1.043-0.41797-2.457 0.625-3.168 1.043-0.70703 2.457-0.41797 3.168 0.625l6.043 9.043c1.918 2.875 1.957 6.582 0.082031 9.5l-6.082 9.5c-0.45703 0.66797-1.168 1.043-1.918 1.043z"/>
  </g>
</svg>