<?xml version="1.0" encoding="utf-8"?>
<svg viewBox="37.1865 26.9255 25.677 46.2855" xmlns="http://www.w3.org/2000/svg">
  <path d="m39.457 73.125c-0.66797 0-1.293-0.29297-1.75-0.83203-0.79297-0.95703-0.66797-2.418 0.29297-3.207l18.582-15.5c0.20703-0.16797 0.41797-0.375 0.58203-0.58203 1.625-1.957 1.375-4.918-0.58203-6.543l-18.582-15.5c-0.95703-0.79297-1.082-2.25-0.29297-3.207 0.83203-0.95703 2.25-1.125 3.25-0.29297l18.582 15.5c3.918 3.25 4.457 9.082 1.168 13-0.375 0.41797-0.75 0.83203-1.207 1.207l-18.582 15.5c-0.41797 0.375-0.95703 0.54297-1.457 0.54297z" transform="matrix(0.9999999999999999, 0, 0, 0.9999999999999999, -1.7763568394002505e-15, 0)"/>
</svg>